<svg xmlns="http://www.w3.org/2000/svg" viewBox="0 0 1160 1160" role="img" aria-label="Aura rice stalk">
  <rect width="1160" height="1160" rx="230" fill="#163c2e"/>
  <g transform="translate(80 38) scale(.93)">
  <path fill="#ffe500" d="M 797.0 227.8 L 831.0 233.8 L 854.1 244.0 L 870.2 261.0 L 876.7 281.0 L 839.0 291.5 L 818.0 287.2 L 801.0 278.2 L 777.6 256.0 L 767.8 239.0 L 772.0 234.9 L 797.0 227.8 Z"/>
  <path fill="#ffe500" d="M 718.0 37.9 L 721.4 65.0 L 710.2 110.0 L 697.4 129.0 L 687.0 138.2 L 663.0 151.2 L 648.0 154.8 L 647.6 114.0 L 655.5 89.0 L 676.0 65.6 L 718.0 37.9 Z"/>
  <path fill="#ffe500" d="M 554.0 78.9 L 558.5 81.0 L 571.4 117.0 L 571.4 162.0 L 550.0 196.5 L 527.0 211.5 L 515.6 175.0 L 514.7 136.0 L 532.8 98.0 L 554.0 78.9 Z"/>
  <path fill="#ffe500" d="M 852.0 55.9 L 873.0 55.6 L 876.6 59.0 L 854.4 94.0 L 832.2 115.0 L 820.0 123.2 L 794.0 131.4 L 776.0 132.5 L 754.3 128.0 L 766.8 98.0 L 788.8 74.0 L 813.0 60.9 L 852.0 55.9 Z"/>
  <path fill="#ffe500" d="M 696.0 287.0 L 711.0 287.6 L 727.0 293.6 L 751.4 315.0 L 766.7 341.0 L 744.0 348.4 L 713.0 351.5 L 677.0 343.1 L 662.8 335.0 L 632.2 305.0 L 666.0 291.6 L 696.0 287.0 Z"/>
  <path fill="#ffe500" d="M 949.0 137.9 L 983.0 142.6 L 997.0 148.3 L 1015.0 164.5 L 1021.9 176.0 L 995.0 190.2 L 971.0 197.4 L 943.0 197.4 L 910.5 189.0 L 888.8 174.0 L 882.9 164.0 L 916.0 145.0 L 949.0 137.9 Z"/>
  <path fill="#ffe500" d="M 779.0 169.8 L 830.0 170.5 L 838.3 174.0 L 765.0 183.6 L 715.0 198.8 L 636.0 239.8 L 576.0 282.6 L 539.4 321.0 L 581.0 333.7 L 608.7 356.0 L 581.0 351.5 L 551.0 353.6 L 511.0 365.8 L 482.0 379.8 L 445.0 407.6 L 425.6 427.0 L 399.0 459.8 L 367.0 510.1 L 385.7 457.0 L 431.3 374.0 L 445.9 353.0 L 479.0 316.5 L 520.0 279.0 L 585.0 232.3 L 658.0 195.8 L 716.0 177.6 L 779.0 169.8 Z"/>
  <path fill="#f7f8f3" d="M 649.0 755.0 L 678.0 756.6 L 707.4 766.0 L 670.0 772.9 L 640.0 786.8 L 573.0 838.6 L 527.6 887.0 L 501.8 921.0 L 467.3 979.0 L 448.8 1021.0 L 426.0 1096.0 L 412.2 1026.0 L 394.0 979.0 L 383.7 961.0 L 401.9 923.0 L 450.6 862.0 L 480.0 833.1 L 519.0 804.8 L 590.0 768.8 L 632.0 755.8 L 649.0 755.0 Z"/>
  <path fill="#f7f8f3" d="M 448.0 304.8 L 452.0 306.0 L 451.2 310.0 L 403.8 372.0 L 374.8 431.0 L 353.8 498.0 L 342.6 557.0 L 336.5 640.0 L 336.5 731.0 L 346.6 817.0 L 369.0 931.2 L 320.0 870.8 L 275.7 833.0 L 272.6 641.0 L 281.6 586.0 L 296.9 525.0 L 312.8 479.0 L 344.7 407.0 L 356.0 386.8 L 391.5 344.0 L 415.0 324.8 L 448.0 304.8 Z"/>
  <path fill="#f7f8f3" d="M 29.0 766.9 L 118.0 775.6 L 161.0 790.8 L 236.0 825.8 L 306.5 880.0 L 340.2 920.0 L 362.1 953.0 L 376.2 983.0 L 399.2 1060.0 L 408.0 1120.0 L 396.0 1122.5 L 286.0 1122.0 L 289.5 1073.0 L 281.1 1025.0 L 256.7 969.0 L 224.0 914.8 L 185.0 870.5 L 145.2 838.0 L 90.1 801.0 L 28.0 774.2 L 26.4 769.0 L 29.0 766.9 Z"/>
  </g>
</svg>
